<?xml version="1.0" standalone="no"?>
<!DOCTYPE svg PUBLIC "-//W3C//DTD SVG 20010904//EN"
 "http://www.w3.org/TR/2001/REC-SVG-20010904/DTD/svg10.dtd">
<svg version="1.0" xmlns="http://www.w3.org/2000/svg"
 width="24.000000pt" height="24.000000pt" viewBox="0 0 24.000000 24.000000"
 preserveAspectRatio="xMidYMid meet">

<g transform="translate(0.000000,24.000000) scale(0.100000,-0.100000)"
fill="#000000" stroke="none">
<path d="M96 217 c-15 -16 -16 -19 -3 -14 8 3 18 1 21 -6 5 -9 7 -9 12 0 3 7
13 9 21 6 11 -4 9 1 -5 15 -26 26 -22 26 -46 -1z"/>
<path d="M40 216 c0 -8 5 -16 11 -18 16 -5 -4 -43 -23 -43 -10 0 -17 -4 -15
-10 1 -5 10 -10 19 -9 22 1 35 -35 17 -47 -11 -6 -11 -11 -2 -20 10 -10 14 -9
19 4 3 10 11 14 18 10 6 -4 3 5 -6 20 -20 29 -23 41 -9 33 5 -3 12 5 15 19 4
14 11 25 17 25 6 0 8 -4 5 -8 -2 -4 4 -8 14 -8 10 0 16 4 14 8 -3 4 -1 8 5 8
6 0 13 -11 17 -25 3 -14 10 -22 15 -19 14 8 11 -4 -8 -33 -10 -15 -13 -24 -7
-20 7 4 15 0 18 -10 5 -13 9 -14 19 -4 9 9 9 14 -2 20 -18 12 -5 48 17 47 9
-1 18 4 20 9 1 6 -6 10 -15 10 -10 0 -21 5 -25 10 -5 6 -8 4 -8 -5 0 -11 -3
-11 -12 -2 -9 9 -6 16 10 30 22 20 29 42 13 42 -5 0 -15 -10 -23 -22 -10 -15
-25 -21 -48 -21 -23 0 -38 6 -48 21 -16 25 -32 29 -32 8z m40 -45 c0 -6 -4
-13 -10 -16 -5 -3 -10 1 -10 9 0 9 5 16 10 16 6 0 10 -4 10 -9z"/>
<path d="M86 136 c-4 -13 1 -26 11 -33 21 -16 25 -16 47 0 25 18 9 52 -26 53
-19 1 -28 -5 -32 -20z m54 -1 c10 -12 9 -16 -4 -21 -9 -3 -23 -3 -32 0 -13 5
-14 9 -4 21 16 19 24 19 40 0z"/>
<path d="M105 130 c-3 -5 3 -10 15 -10 12 0 18 5 15 10 -3 6 -10 10 -15 10 -5
0 -12 -4 -15 -10z"/>
<path d="M83 53 c-3 -8 4 -24 15 -36 21 -20 22 -20 42 -2 11 10 19 26 18 34
-4 21 -68 24 -75 4z"/>
</g>
</svg>
